<svg width="166" height="42" viewBox="0 0 166 42" fill="none" xmlns="http://www.w3.org/2000/svg">
<path d="M53.424 21.504H50.04V28.368H51.6V30H46.56V28.368H48.072V13.632H46.56V12H57.816V16.44H56.184V13.632H50.04V19.872H53.424V18.168H55.056V23.208H53.424V21.504ZM60.8055 30.048C59.5575 30.048 58.9335 29.432 58.9335 28.2V19.608H57.3975V17.976H60.8775V28.368L65.6535 25.368V19.608H64.4775V17.976H67.5975V28.368H69.1095V30H65.6535V27.312L61.6695 29.808C61.4135 29.968 61.1255 30.048 60.8055 30.048ZM74.6861 13.632V18H76.6301V19.728H74.6861V28.368H76.9661V30H74.9501C74.2301 30 73.6941 29.816 73.3421 29.448C72.9901 29.064 72.8141 28.416 72.8141 27.504V19.728H71.0381V18H72.8141V13.632H74.6861ZM82.0633 30.048C80.8153 30.048 80.1913 29.432 80.1913 28.2V19.608H78.6553V17.976H82.1353V28.368L86.9113 25.368V19.608H85.7353V17.976H88.8553V28.368H90.3673V30H86.9113V27.312L82.9273 29.808C82.6713 29.968 82.3833 30.048 82.0633 30.048ZM99.5679 18C100.816 18 101.44 18.616 101.44 19.848V21.984H99.4959V19.656L95.7519 22.032V28.368H96.9279V30H92.2959V28.368H93.8079V19.608H92.2959V17.976H95.7519V20.088L98.7039 18.24C98.9599 18.08 99.2479 18 99.5679 18ZM103.598 20.352C103.598 18.768 104.422 17.976 106.07 17.976H110.126C110.91 17.976 111.478 18.128 111.83 18.432C112.182 18.736 112.358 19.296 112.358 20.112V22.344L105.518 26.664V28.368H110.462V26.976H112.358V28.248C112.358 28.728 112.206 29.144 111.902 29.496C111.614 29.832 111.126 30 110.438 30H105.518C104.83 30 104.334 29.832 104.03 29.496C103.742 29.144 103.598 28.728 103.598 28.248V20.352ZM105.518 24.72L110.438 21.624V19.632H105.518V24.72ZM121.859 27.888C121.859 29.296 121.171 30 119.795 30H113.987V26.376H115.619V28.368H119.939V26.376L116.003 23.904C115.603 23.648 115.259 23.44 114.971 23.28C114.683 23.12 114.443 22.96 114.251 22.8C113.899 22.48 113.723 22.048 113.723 21.504V20.136C113.723 19.464 113.835 19 114.059 18.744C114.491 18.248 115.131 18 115.979 18H121.571V21.6H119.939V19.632H115.619V21.648L119.699 24.192C120.035 24.4 120.331 24.584 120.587 24.744C120.859 24.888 121.083 25.04 121.259 25.2C121.659 25.536 121.859 25.936 121.859 26.4V27.888ZM123.55 18H127.366V19.632H126.31L128.254 28.344L130.486 18H133.126L135.43 28.392L137.398 19.632H136.318V18H140.158V19.632H139.006L136.726 30H134.158L131.878 19.608L129.55 30H126.862C126.862 30 126.806 29.744 126.694 29.232C126.582 28.704 126.438 28.056 126.262 27.288C126.102 26.52 125.926 25.688 125.734 24.792C125.542 23.896 125.358 23.064 125.182 22.296C125.022 21.528 124.878 20.896 124.75 20.4L124.582 19.632H123.55V18ZM151.52 28.368V30H143.168C142.352 30 141.8 29.84 141.512 29.52C141.256 29.232 141.128 28.688 141.128 27.888V27C141.128 26.424 141.2 26.032 141.344 25.824C141.552 25.52 142.024 25.144 142.76 24.696L148.04 21.408V19.632H143.336V21.024H141.8V18H147.8C148.616 18 149.184 18.176 149.504 18.528C149.84 18.88 150.008 19.392 150.008 20.064V28.368H151.52ZM148.04 23.328L143.048 26.448V28.368H148.04V23.328ZM156.924 28.368H162.012V19.464L156.924 22.656V28.368ZM153.468 34.368H154.956V19.656H153.444V18H156.924V20.736L161.076 18.12C161.46 17.88 161.868 17.76 162.3 17.76C162.732 17.76 163.108 17.896 163.428 18.168C163.764 18.424 163.932 18.808 163.932 19.32V27.744C163.932 28.48 163.828 28.984 163.62 29.256C163.22 29.752 162.604 30 161.772 30H156.924V34.368H158.508V36H153.468V34.368Z" fill="white"/>
<path d="M9.58065 0H27V10.5H12.1935V21.875H21.7742V33.25H10.4516V42H0V31.5H9.58065V21.875H0V10.5H9.58065V0Z" fill="url(#paint0_linear_59_2162)"/>
<defs>
<linearGradient id="paint0_linear_59_2162" x1="13.5" y1="0" x2="15.9867" y2="66.2929" gradientUnits="userSpaceOnUse">
<stop stop-color="#1510FF"/>
<stop offset="0.390625" stop-color="#F87700"/>
<stop offset="0.583333" stop-color="#858800" stop-opacity="0.8075"/>
<stop offset="0.9999" stop-color="#BEFF00" stop-opacity="0.757656"/>
<stop offset="1" stop-color="#72E13E" stop-opacity="0.67"/>
</linearGradient>
</defs>
</svg>
